<?xml version="1.0" encoding="UTF-8"?>
<svg width="25pt" height="25pt" version="1.1" viewBox="0 0 1200 1200" xmlns="http://www.w3.org/2000/svg">
 <path d="m130.78 555.61c-6 0-10.781 4.7812-10.781 10.781v66c0 6 4.7812 10.781 10.781 10.781s10.781-4.7812 10.781-10.781v-66c0.046875-6-4.7812-10.781-10.781-10.781z"/>
 <path d="m186 511.22c-6 0-10.781 4.7812-10.781 10.781v154.78c0 6 4.7812 10.781 10.781 10.781s10.781-4.7812 10.781-10.781v-153.56c0-6-4.7812-12-10.781-12z"/>
 <path d="m406.78 330c-6 0-10.781 4.7812-10.781 10.781v518.39c0 6 4.7812 10.781 10.781 10.781s10.781-4.7812 10.781-10.781l0.046875-518.39c0-6-4.8281-10.781-10.828-10.781z"/>
 <path d="m462 428.39c-6 0-10.781 4.7812-10.781 10.781v325.22c0 6 4.7812 10.781 10.781 10.781s10.781-4.7812 10.781-10.781v-324c0-6-4.7812-12-10.781-12z"/>
 <path d="m517.22 511.22c-6 0-10.781 4.7812-10.781 10.781v154.78c0 6 4.7812 10.781 10.781 10.781s10.781-4.7812 10.781-10.781v-153.56c0-6-4.7812-12-10.781-12z"/>
 <path d="m572.39 555.61c-6 0-10.781 4.7812-10.781 10.781v66c0 6 4.7812 10.781 10.781 10.781s10.781-4.7812 10.781-10.781v-66c0.046875-6-4.7812-10.781-10.781-10.781z"/>
 <path d="m351.61 428.39c-6 0-10.781 4.7812-10.781 10.781v325.22c0 6 4.7812 10.781 10.781 10.781s10.781-4.7812 10.781-10.781v-324c0-6-4.7812-12-10.781-12z"/>
 <path d="m296.39 511.22c-6 0-10.781 4.7812-10.781 10.781v154.78c0 6 4.7812 10.781 10.781 10.781s10.781-4.7812 10.781-10.781l0.046875-153.56c0-6-4.8281-12-10.828-12z"/>
 <path d="m241.22 555.61c-6 0-10.781 4.7812-10.781 10.781v66c0 6 4.7812 10.781 10.781 10.781s10.781-4.7812 10.781-10.781v-66c0-6-4.7812-10.781-10.781-10.781z"/>
 <path d="m793.22 330c-6 0-10.781 4.7812-10.781 10.781v518.39c0 6 4.7812 10.781 10.781 10.781s10.781-4.7812 10.781-10.781v-518.39c0-6-4.7812-10.781-10.781-10.781z"/>
 <path d="m848.39 428.39c-6 0-10.781 4.7812-10.781 10.781v325.22c0 6 4.7812 10.781 10.781 10.781s10.781-4.7812 10.781-10.781l0.046875-324c0-6-4.8281-12-10.828-12z"/>
 <path d="m903.61 511.22c-6 0-10.781 4.7812-10.781 10.781v154.78c0 6 4.7812 10.781 10.781 10.781s10.781-4.7812 10.781-10.781v-153.56c0-6-4.7812-12-10.781-12z"/>
 <path d="m958.78 555.61c-6 0-10.781 4.7812-10.781 10.781v66c0 6 4.7812 10.781 10.781 10.781s10.781-4.7812 10.781-10.781v-66c0.046875-6-4.7812-10.781-10.781-10.781z"/>
 <path d="m738 428.39c-6 0-10.781 4.7812-10.781 10.781v325.22c0 6 4.7812 10.781 10.781 10.781s10.781-4.7812 10.781-10.781v-324c0-6-4.7812-12-10.781-12z"/>
 <path d="m682.78 511.22c-6 0-10.781 4.7812-10.781 10.781v154.78c0 6 4.7812 10.781 10.781 10.781s10.781-4.7812 10.781-10.781l0.046875-153.56c0-6-4.8281-12-10.828-12z"/>
 <path d="m627.61 555.61c-6 0-10.781 4.7812-10.781 10.781v66c0 6 4.7812 10.781 10.781 10.781s10.781-4.7812 10.781-10.781v-66c0-6-4.7812-10.781-10.781-10.781z"/>
 <path d="m1069.2 555.61c-6 0-10.781 4.7812-10.781 10.781v66c0 6 4.7812 10.781 10.781 10.781s10.781-4.7812 10.781-10.781v-66c0-6-4.7812-10.781-10.781-10.781z"/>
 <path d="m1014 511.22c-6 0-10.781 4.7812-10.781 10.781v154.78c0 6 4.7812 10.781 10.781 10.781s10.781-4.7812 10.781-10.781v-153.56c0-6-4.7812-12-10.781-12z"/>
</svg>
